PathFileType	4	(X/Y/Z)	C:/Users/beibeiliu/ov580/test_trc/User3\sequence.36_training_dense_right.trc
DataRate	CameraRate	NumFrames	NumMarkers	Units	OrigDataRate	OrigDataStartFrame	OrigNumFrames
120	120	24	19	mm	120	127	252
Frame#	Time	ThumbCMC			ThumbMCP			ThumbIP			ThumbTip			IndexMCP			IndexPIP			IndexTip			MiddleMCP			MiddlePIP			MiddleTip			RingMCP			RingPIP			RingTip			PinkyMCP			PinkyPIP			PinkyTip			BackHand1			BackHand2			BackHand3	
		X0	Y0	Z0	X1	Y1	Z1	X2	Y2	Z2	X3	Y3	Z3	X4	Y4	Z4	X5	Y5	Z5	X6	Y6	Z6	X7	Y7	Z7	X8	Y8	Z8	X9	Y9	Z9	X10	Y10	Z10	X11	Y11	Z11	X12	Y12	Z12	X13	Y13	Z13	X14	Y14	Z14	X15	Y15	Z15	X16	Y16	Z16	X17	Y17	Z17	X18	Y18	Z18	
126	1.05	61.3724	-70.7061	29.4942	45.9746	-83.7508	5.58459	37.2103	-95.807	-21.1826	40.3343	-109.74	-39.4812	82.4619	-66.134	-43.786	80.9636	-85.4063	-71.9506	73.5192	-112.843	-78.4343	108.825	-74.5788	-49.7726	103.11	-95.6789	-73.7936	91.0176	-129.684	-73.5008	122.212	-90.6894	-39.6785	114.211	-114.595	-54.2386	97.6669	-140.314	-39.3437	133.151	-101.752	-19.6764	125.258	-126.368	-31.1703	102.828	-138.248	-16.5585	122.585	-63.1117	11.0684	124.529	-61.3131	43.4749	92.0726	-49.0986	20.8296	
127	1.05833	61.4854	-81.4046	32.3082	50.0189	-96.4028	6.87514	39.2166	-109.397	-15.1853	41.4442	-123.442	-36.8752	87.7038	-81.2432	-41.2774	79.1011	-96.4226	-69.8167	71.891	-125.33	-77.6941	107.612	-85.1417	-44.9868	106.796	-108.231	-70.7039	93.2989	-142.676	-74.1001	120.566	-101.524	-34.9751	116.645	-131.282	-50.0337	102.3	-153.034	-35.9167	136.33	-116.17	-19.5007	123.511	-140.372	-25.8234	104.919	-152.608	-8.35746	125.466	-77.0162	13.9893	120.799	-71.7225	48.8636	94.1086	-63.9616	27.5198	
128	1.06667	58.8374	-89.4741	36.8105	47.9653	-105.203	14.1153	40.0423	-119.485	-12.3068	39.2956	-134.945	-35.632	85.4967	-89.8814	-39.4327	83.7294	-103.451	-64.1832	76.5725	-129.521	-77.4531	110.042	-94.7358	-38.4861	108.52	-113.204	-69.5953	99.4049	-148.876	-78.6379	122.667	-111.606	-32.8476	119.111	-139.454	-47.5035	102.378	-164.207	-34.9769	138.708	-126.511	-13.7344	128.51	-146.997	-23.4795	108.459	-160.091	-9.41073	125.681	-86.3422	16.3246	125.012	-78.6141	49.2427	93.7977	-72.6331	30.2188	
129	1.075	62.0958	-99.3554	37.2331	47.3978	-113.846	14.3694	35.296	-127.957	-8.73591	34.0069	-143.8	-27.7794	88.1143	-100.128	-38.5975	80.8606	-109.948	-62.6031	78.0176	-133.172	-79.7754	111.268	-102.166	-39.7237	114.511	-119.117	-66.3595	105.358	-149.78	-85.0669	124.112	-119.892	-26.8024	124.404	-143.619	-43.3906	109.455	-175.03	-36.1128	136.692	-130.404	-6.52405	132.273	-159.463	-16.401	113.536	-174.59	-3.49384	124.415	-92.2506	20.8268	120.614	-85.4035	53.6016	91.9005	-78.5947	30.2264	
130	1.08333	61.8089	-105.539	41.6369	43.6325	-122.917	16.7388	35.3267	-138.142	-5.4242	31.2	-153.63	-21.2691	85.9733	-107.622	-33.3663	79.0221	-116.433	-59.2068	81.7191	-133.549	-80.6396	116.119	-112.186	-36.1647	116.305	-125.301	-63.7809	115.032	-146.769	-85.564	127.557	-128.783	-23.1098	126.542	-152.878	-40.894	115.861	-183.465	-39.902	137.932	-138.948	-5.0934	138.592	-162.753	-12.3003	118.881	-185.767	-6.02276	122.476	-96.6577	22.0365	124.39	-91.5024	54.8069	92.5182	-87.3218	31.139	
131	1.09167	61.6717	-113.57	39.858	44.6747	-131.222	24.6421	29.8445	-148.819	0.373552	24.0252	-162.213	-12.9618	81.3404	-114.933	-29.8752	79.1609	-121.589	-56.4415	76.3892	-134.016	-80.2829	114.039	-118.506	-30.1971	118.136	-130.557	-62.1613	124.104	-147.834	-87.5108	128.755	-134.586	-18.6236	130.838	-157.479	-38.3432	125.878	-189.459	-40.9139	141.987	-143.491	-1.1702	139.849	-170.146	-9.76821	129.164	-192.786	-5.27598	121.141	-102.003	25.0227	122.291	-92.7924	50.2628	91.719	-93.0619	28.9572	
132	1.1	56.3262	-119.307	43.8531	42.4309	-139.562	26.2868	27.8111	-157.635	3.65613	23.5124	-172.836	-8.97251	85.4631	-123.913	-29.801	81.2426	-130.222	-56.1623	74.903	-139.302	-84.4846	110.573	-123.215	-32.1159	119.332	-134.961	-60.9794	124.998	-148.132	-84.8735	129.434	-140.909	-19.7451	132.89	-160.931	-36.4205	129.439	-192.646	-42.556	143.804	-146.277	2.37318	142.606	-174.874	-8.19271	131.529	-195.087	-3.24986	122.996	-104.018	23.7485	121.938	-96.1671	53.5403	87.9417	-95.9108	31.7528	
133	1.10833	55.7941	-124.828	42.5249	46.3147	-149.009	22.5671	33.4287	-166.148	7.91416	23.9028	-182.971	-5.97202	80.0351	-130.22	-33.2872	76.969	-138.998	-58.1087	79.1131	-147.823	-83.9954	115.322	-131.56	-33.8716	115.625	-141.056	-58.0068	125.874	-155.858	-85.0453	131.303	-145.228	-18.5909	137.624	-168.014	-34.1409	137.148	-197.799	-37.143	147.283	-153.248	1.20074	146.622	-181.219	-4.53567	134.186	-198.645	-0.910736	121.173	-110.312	21.1364	116.432	-98.3083	46.3363	85.6438	-102.797	27.955	
134	1.11667	60.1948	-128.214	41.2404	48.1011	-152.538	25.3957	30.2842	-173.255	6.2099	24.4156	-190.126	-7.84283	82.4042	-133.87	-33.3004	73.8267	-143.167	-57.3381	73.9745	-156.962	-83.5122	110.401	-134.16	-36.3209	117.103	-147.532	-61.2046	125.553	-168.686	-88.1748	127.959	-147.819	-21.8396	134.246	-171.805	-34.9041	128.762	-206.507	-33.6928	143.577	-152.233	0.429217	142.121	-182.103	-6.87795	131.129	-202.15	0.869272	118.44	-109.534	20.681	116.217	-100.35	50.0897	88.5724	-103.763	28.4418	
135	1.125	58.4566	-128.341	38.7519	44.9732	-153.015	24.2002	33.5766	-174.448	4.46223	33.8593	-191.83	-9.55703	77.1339	-133.715	-32.3803	76.316	-146.027	-58.9062	74.7205	-164.04	-79.8383	111.184	-135.949	-38.4563	114.521	-151.193	-62.1888	117.573	-175.696	-81.8442	126.504	-151.264	-24.8303	129.408	-179.163	-34.0129	124.954	-205.266	-24.659	141.504	-154.139	-1.85211	140.863	-184.21	-6.01106	126.125	-202.348	6.16877	120.239	-112.539	16.66	116.818	-97.9969	47.3571	87.4861	-105.93	24.0718	
136	1.13333	58.9956	-122.825	41.7365	50.0314	-147.489	22.0403	40.491	-167.915	3.57531	41.195	-186.469	-12.9892	81.2775	-128.196	-32.5243	70.1526	-141.577	-59.0698	70.6351	-169.452	-75.6007	108.866	-132.501	-38.0236	107.754	-148.771	-61.6249	109.865	-181.468	-75.02	125.686	-147.723	-21.8737	124.784	-176.439	-30.4982	113.783	-204.159	-14.331	139.265	-151.77	-4.92844	134.498	-181.349	-5.87485	114.673	-193.769	9.02167	121.662	-108.24	15.5287	121.786	-98.1699	48.522	89.7617	-99.4059	24.4352	
137	1.14167	58.7761	-114.539	41.3627	47.426	-137.642	19.267	37.6465	-157.212	-2.86626	45.162	-175.305	-14.66	78.9911	-119.38	-36.8275	69.476	-135.295	-59.957	63.7682	-163.08	-69.9616	106.247	-125.545	-38.7682	102.307	-148.079	-65.3676	96.9042	-181.088	-68.5429	121.84	-144.822	-25.7386	113.981	-175.891	-29.8733	99.326	-193.718	-6.48902	133.973	-150.741	-8.89607	125.851	-176.179	-7.75255	108.33	-181.638	17.8292	125.871	-103.689	17.8832	120.179	-92.2087	45.154	88.6653	-92.8949	24.723	
138	1.15	59.9439	-102.942	40.3647	45.1818	-123.229	19.05	37.1414	-142.744	-4.77901	43.3725	-162.914	-21.3348	80.4808	-108.023	-37.1501	67.8293	-126.027	-61.5589	61.9565	-154.121	-64.4115	104.795	-115.466	-41.1045	97.7344	-140.867	-63.48	91.335	-171.97	-60.4116	117.391	-135.376	-23.598	109.071	-168.047	-27.1856	90.3041	-178.3	-1.93632	129.482	-144.617	-10.021	115.759	-168.105	-7.09267	100.037	-166.925	20.4056	124.204	-96.3514	15.0715	126.525	-88.8663	45.817	93.2402	-84.1662	29.2179	
139	1.15833	66.039	-91.0718	41.6169	50.3864	-108.525	16.6865	38.4055	-126.056	-6.50772	46.8302	-143.813	-20.5492	78.7101	-92.2322	-36.5608	66.8585	-112.156	-60.5539	57.4136	-137.89	-59.9203	104.587	-102.705	-40.5026	95.5075	-128.984	-62.7216	83.6703	-159.844	-53.0889	112.959	-124.767	-24.6441	103.333	-154.174	-28.2397	86.1434	-161.727	3.03395	127.253	-138.833	-9.92127	110.14	-157.586	-7.4454	95.6901	-151.773	21.6331	125.868	-89.4215	16.1503	129.378	-81.9641	47.7532	98.9262	-73.7322	29.7388	
140	1.16667	68.3646	-78.2055	40.209	46.6699	-92.7757	18.1468	39.4103	-108.779	-4.09681	46.8828	-126.513	-23.8382	82.7008	-77.1597	-32.4791	72.1272	-97.7067	-59.9586	55.4928	-123.167	-56.5747	105.612	-88.1807	-37.0489	93.1696	-112.553	-62.3286	80.3049	-144.551	-49.0814	116.574	-115.111	-26.4919	98.2314	-140.481	-29.2591	85.5512	-146.491	4.21128	126.473	-124.522	-8.51055	107.171	-144.88	-8.44771	93.0855	-135.57	22.3917	131.504	-82.9585	21.4696	131.046	-76.6051	48.2434	99.2497	-61.5948	31.4599	
141	1.175	67.4883	-64.9143	45.8684	51.8528	-79.0825	17.0502	39.9219	-90.7663	-8.50677	48.7485	-108.657	-24.0615	85.5405	-59.7632	-33.8474	77.5503	-77.1326	-58.2901	61.895	-104.493	-55.0552	110.607	-74.6624	-35.4243	94.1972	-93.232	-60.8548	78.2297	-124.388	-47.5234	112.925	-98.578	-27.6616	98.6333	-126.14	-28.2446	83.6809	-130.5	-1.71453	128.226	-113.827	-9.18522	104.171	-131.585	-5.83413	97.1944	-125.289	21.1063	130.75	-68.7259	20.4012	136.196	-67.8522	53.6792	106.827	-52.8726	34.9451	
142	1.18333	70.9063	-53.6619	43.8607	51.8653	-63.1779	20.0669	43.8583	-73.393	-8.58472	50.6706	-89.5829	-24.8805	93.0344	-43.3864	-28.63	79.5599	-55.2074	-54.976	63.2166	-82.7744	-54.2385	113.873	-56.6815	-35.1218	102.673	-74.7187	-58.5654	80.1087	-107.417	-43.5557	117.754	-84.1915	-28.0704	100.929	-105.499	-32.5638	86.2028	-113.222	1.76089	128.216	-99.2445	-11.2188	106.41	-115.242	-10.0789	98.1598	-112.93	22.1482	133.955	-58.4929	27.7021	140.161	-59.4749	53.2902	107.88	-38.483	38.9636	
143	1.19167	77.3445	-44.9708	47.0003	57.5914	-50.9737	23.4197	48.3187	-57.7252	-8.25823	57.6198	-71.2106	-30.0903	96.7077	-26.4884	-20.8689	82.8934	-37.9897	-52.1873	70.8684	-66.5111	-50.7779	119.152	-39.4139	-28.4503	107.79	-55.6298	-56.4164	83.8562	-87.6956	-44.3256	124.114	-65.0592	-21.6163	105.41	-93.6927	-29.0162	91.1055	-98.4859	-1.46935	134.189	-83.7259	-9.00004	112.367	-102.048	-10.0881	98.5283	-96.0805	18.1106	138.509	-44.5751	27.2686	138.803	-51.7009	62.9	111.197	-32.1099	44.1012	
144	1.2	79.3414	-38.3097	55.4544	60.6469	-40.162	24.443	56.1022	-43.8285	-5.0581	61.2426	-54.6824	-28.05	102.106	-11.1592	-18.4983	91.9488	-22.8585	-48.4482	73.1605	-46.9421	-47.3224	121.016	-23.5283	-22.044	110.598	-39.2213	-52.4696	89.5061	-69.3563	-44.4381	128.233	-51.5592	-21.8109	113.542	-74.3566	-30.9957	96.8648	-85.1231	0.37535	138.326	-72.0193	-9.44312	112.18	-87.9372	-9.31896	103.699	-85.8748	15.4007	141.302	-37.9212	31.7715	141.077	-44.6112	67.7692	115.729	-21.5018	49.3847	
145	1.20833	81.4959	-32.5143	56.3703	66.43	-31.6473	24.7164	57.6697	-33.2117	-3.37477	66.9654	-42.0059	-27.0678	108.182	-2.46884	-13.5485	96.8082	-7.58282	-42.4809	77.7828	-35.9467	-42.9746	127.029	-12.4449	-17.2093	115.396	-24.1743	-48.9202	95.1918	-57.329	-41.3579	132.143	-38.3719	-18.0326	114.395	-62.5663	-30.3467	101.653	-73.8518	-0.533496	140.457	-58.8803	-6.81145	118.424	-76.2387	-11.4893	109.383	-80.146	18.4439	146.81	-33.2511	39.5823	143.588	-40.5672	69.2908	119.491	-17.8576	55.387	
146	1.21667	82.861	-27.5398	55.0432	68.6447	-28.1672	29.1676	62.1353	-26.5047	-3.13078	69.7272	-36.3501	-23.2793	107.814	6.82858	-10.62	97.9944	1.38962	-37.8078	83.3343	-32.1699	-39.0983	128.285	-6.38713	-14.9057	117.467	-18.4299	-46.1927	96.5043	-52.4468	-35.1369	135.352	-32.5086	-13.9555	117.704	-54.6215	-28.7591	103.532	-66.9676	-2.39131	141.975	-53.7452	-9.08157	119.037	-69.7424	-10.2962	109.856	-68.7218	18.3996	145.878	-23.6539	40.027	144.786	-38.4314	69.0667	117.954	-15.7665	59.4588	
147	1.225	81.3253	-25.9328	56.5018	68.1261	-26.506	29.1386	62.8068	-24.9514	-0.793765	72.613	-33.1252	-22.7081	111.279	5.72143	-6.94081	101.383	1.44961	-38.6136	83.8822	-28.7359	-38.0484	131.562	-4.27124	-16.6749	115.94	-16.6255	-46.4638	93.9969	-47.57	-33.8313	134.789	-28.3467	-14.0722	120.419	-49.9091	-29.9623	104.146	-64.0798	-3.01056	142.567	-47.5888	-4.43505	123.335	-66.8862	-11.641	111.661	-71.752	16.1837	145.928	-23.6154	43.2083	143.442	-35.001	68.6315	119.04	-15.0385	60.5069	
148	1.23333	82.2458	-27.1408	56.93	65.9655	-25.3233	26.7794	60.6612	-23.228	-4.18513	69.8214	-32.9735	-25.131	108.756	8.45573	-8.85138	99.0382	-0.677938	-39.9704	80.3116	-28.0501	-39.0725	128.517	-2.74916	-16.4707	119.537	-13.3598	-45.4541	97.1501	-48.0472	-36.1712	133.512	-27.291	-16.3115	120.796	-50	-31.2732	102.557	-62.1597	-4.9223	142.216	-49.1141	-8.96922	121.708	-69.5188	-11.0546	111.544	-68.0532	18.2862	146.01	-24.9191	40.369	143.069	-35.2301	70.7803	119.686	-13.4953	60.6053	
149	1.24167	78.4169	-28.2806	57.8382	65.9912	-28.8633	30.7025	57.4023	-26.4658	-3.57057	71.1537	-37.2015	-23.8103	109.082	4.2186	-7.9388	99.5914	0.056689	-38.1144	83.6842	-27.5501	-43.4162	127.144	-4.78448	-14.1714	117.071	-14.602	-45.5697	96.5817	-49.6297	-40.2239	131.939	-29.3328	-15.2754	118.863	-50.2254	-30.8687	101.315	-65.8652	-1.84011	139.955	-51.5636	-8.87888	119.628	-69.8529	-11.6642	109.481	-69.4329	17.9374	144.332	-24.8733	41.9954	144.498	-36.8256	70.2455	114.763	-12.5584	58.4275	
